# xmcd
#
# Track frame offsets: 
#        150
#        16147
#        35167
#        53162
#        68767
#        87435
#        104565
#        117880
#        134142
#        152442
#
# Disc length: 2255 seconds
#
# Revision: 0
# Processed by: cddbd v1.5.2PL0 Copyright (c) Steve Scherf et al.
# Submitted via: ExactAudioCopy v0.99pb5
#
DISCID=8608cd0a
DTITLE=Mi Chica - Flores Rojas
DYEAR=1995
DGENRE=Pop
TTITLE0=Ójala
TTITLE1=Me queda la sensación
TTITLE2=No quiero verte llorar
TTITLE3=Si no es por ti
TTITLE4=No me lo digas
TTITLE5=Flores Rojas
TTITLE6=Quiero estar cerca de ti
TTITLE7=La luna de tu sonrisa
TTITLE8=No me vas a olvidar
TTITLE9=Las cosas diferentes
EXTD=
EXTT0=
EXTT1=
EXTT2=
EXTT3=
EXTT4=
EXTT5=
EXTT6=
EXTT7=
EXTT8=
EXTT9=
PLAYORDER=
